<svg width="721" height="722" xmlns="http://www.w3.org/2000/svg" xmlns:xlink="http://www.w3.org/1999/xlink" overflow="hidden"><defs><clipPath id="clip0"><rect x="282" y="-1" width="721" height="722"/></clipPath><clipPath id="clip1"><rect x="282" y="0" width="720" height="720"/></clipPath><clipPath id="clip2"><rect x="282" y="0" width="720" height="720"/></clipPath><clipPath id="clip3"><rect x="282" y="0" width="720" height="720"/></clipPath><clipPath id="clip4"><path d="M554.511 238.213 768.698 372.978 633.933 587.165 419.746 452.4Z" fill-rule="evenodd" clip-rule="evenodd"/></clipPath><clipPath id="clip5"><path d="M554.511 238.213 768.698 372.978 633.933 587.165 419.746 452.4Z" fill-rule="evenodd" clip-rule="evenodd"/></clipPath><clipPath id="clip6"><path d="M554.511 238.213 768.698 372.978 633.933 587.165 419.746 452.4Z" fill-rule="evenodd" clip-rule="evenodd"/></clipPath></defs><g clip-path="url(#clip0)" transform="translate(-282 1)"><g clip-path="url(#clip1)"><g clip-path="url(#clip2)"><g clip-path="url(#clip3)"><path d="M375 261 280.5 114C269.25 96.75 246 91.5 228.75 102.75 228 103.5 226.5 104.25 225.75 105 210.75 117.75 207.75 139.5 218.25 156L305.25 291.75 304.5 292.5 194.25 192C179.25 177.75 155.25 179.25 141 194.25 140.25 195 139.5 195.75 138.75 197.25 127.5 213 129.75 235.5 144.75 248.25L267.75 360 267 360.75 158.25 307.5C141 298.5 119.25 303.75 108 320.25 96.75 337.5 102 360.75 120 372 120.75 372.75 122.25 373.5 123 373.5L246 435 246.75 436.5C272.25 474 341.25 570.75 402.75 565.5L467.25 667.5 615 574.5 556.5 481.5C583.5 431.25 585 372 585 322.5 585 282.75 585 245.25 600.75 229.5 612 216.75 611.25 197.25 598.5 185.25L598.5 185.25C586.5 174 567 174 555 186.75 555 186.75 555 187.5 554.25 187.5 524.25 220.5 507 276.75 506.25 328.5L506.25 330.75C490.5 315.75 475.5 300 462.75 282.75L399.75 93.75C393 74.25 372 63.75 352.5 69.75 351 70.5 350.25 70.5 348.75 71.25 330.75 79.5 322.5 100.5 329.25 119.25L376.5 260.25 375 261Z" fill="#33CCCC" transform="matrix(-1 -8.74228e-08 -8.74228e-08 1 1002 0)"/><path d="M498.75 96.75C511.5 110.25 521.25 125.25 527.25 142.5 530.25 150.75 532.5 159.75 534 168L556.5 164.25C555 153.75 552 144 548.25 134.25 537 105 516.75 79.5 491.25 60.75 483 54.75 473.25 49.5 464.25 45L455.25 65.25C471.75 73.5 486.75 84 498.75 96.75Z" fill="#33CCCC" transform="matrix(-1 -8.74228e-08 -8.74228e-08 1 1002 0)"/><path d="M467.25 126.75C475.5 135.75 482.25 146.25 486.75 158.25 489 164.25 490.5 169.5 491.25 175.5L513.75 171.75C512.25 164.25 510.75 156.75 507.75 150 502.5 135.75 494.25 122.25 483.75 111.75 473.25 100.5 460.5 92.25 447 85.5L438 105.75C448.5 111 459 117.75 467.25 126.75Z" fill="#33CCCC" transform="matrix(-1 -8.74228e-08 -8.74228e-08 1 1002 0)"/><path d="M191.25 540C178.5 526.5 169.5 511.5 162.75 494.25 159.75 486 157.5 477 156 468L133.5 471.75C137.25 492.75 144.75 512.25 156 530.25 161.25 539.25 168 547.5 175.5 555 189.75 570 207 582.75 226.5 591L235.5 570.75C218.25 564 204 553.5 191.25 540Z" fill="#33CCCC" transform="matrix(-1 -8.74228e-08 -8.74228e-08 1 1002 0)"/><path d="M222.75 510C214.5 501 207.75 490.5 203.25 478.5 201 472.5 199.5 467.25 198.75 461.25L176.25 465C177.75 472.5 179.25 480 182.25 486.75 187.5 501 195.75 514.5 207 525.75 217.5 537 230.25 545.25 243.75 552L252.75 531.75C247.5 529.5 242.25 526.5 237 522.75 231.75 519 227.25 514.5 222.75 510Z" fill="#33CCCC" transform="matrix(-1 -8.74228e-08 -8.74228e-08 1 1002 0)"/></g></g></g><g clip-path="url(#clip4)"><g clip-path="url(#clip5)"><g clip-path="url(#clip6)"><path d="M653.928 359.72C651.41 354.279 650.504 348.229 651.318 342.288L654.013 338.004C656.727 333.692 655.43 327.996 651.118 325.282 646.805 322.569 641.109 323.865 638.395 328.178L563.685 446.918C556.909 440.848 548.626 436.712 539.702 434.942 518.768 430.397 499.348 438.048 496.308 451.987 493.268 465.927 507.766 480.997 528.729 485.498 543.364 488.571 557.108 485.882 565.237 479.1L618.413 394.585C619.088 396.734 619.94 398.823 620.962 400.83 637.413 432.794 607.112 448.828 619.963 456.914 636.055 467.225 675.02 406.782 653.928 359.72Z" fill="#FFFFFF"/></g></g></g></g></svg>